<?xml version="1.0" encoding="UTF-8" standalone="no"?>
<svg
   viewBox="0 0 5 16"
   version="1.1"
   id="svg4"
   sodipodi:docname="go-next-symbolic.svg"
   width="5"
   height="16"
   inkscape:version="1.2 (1:1.2.1+202207142221+cd75a1ee6d)"
   xmlns:inkscape="http://www.inkscape.org/namespaces/inkscape"
   xmlns:sodipodi="http://sodipodi.sourceforge.net/DTD/sodipodi-0.dtd"
   xmlns="http://www.w3.org/2000/svg"
   xmlns:svg="http://www.w3.org/2000/svg">
  <defs
     id="defs8" />
  <sodipodi:namedview
     id="namedview6"
     pagecolor="#ffffff"
     bordercolor="#666666"
     borderopacity="1.0"
     inkscape:showpageshadow="2"
     inkscape:pageopacity="0.0"
     inkscape:pagecheckerboard="0"
     inkscape:deskcolor="#d1d1d1"
     showgrid="false"
     inkscape:zoom="53.125"
     inkscape:cx="8.0094118"
     inkscape:cy="8"
     inkscape:window-width="1920"
     inkscape:window-height="1053"
     inkscape:window-x="0"
     inkscape:window-y="27"
     inkscape:window-maximized="1"
     inkscape:current-layer="svg4" />
  <path
     d="m 0,0 c 0.69000004,0.874 1.397,1.757 2.008,2.656 0.679,1 1.287,1.972 1.825,2.912 C 4.33,6.436 4.703,7.342 5,8 4.703,8.658 4.33,9.564 3.833,10.432 A 44.816,44.816 0 0 1 2.008,13.344 C 1.398,14.244 0.69100004,15.126 0,16 v -1.49 c 0.40000004,-0.524 0.83700004,-1.062 1.222,-1.625 0.486,-0.71 0.942,-1.437 1.37,-2.18 0.433,-0.755 0.95,-1.792 1.285,-2.5 V 8.204 L 3.973,8 3.877,7.797 A 39.108,39.108 0 0 0 2.592,5.296 32.873,32.873 0 0 0 1.222,3.115 C 0.83700004,2.553 0.40000004,2.015 0,1.49 Z"
     fill="#808080"
     id="path2"
     style="fill:#ffffff" />
</svg>
