<?xml version="1.0" encoding="UTF-8" standalone="no"?>
<svg
   viewBox="0 0 16 16"
   version="1.1"
   id="svg8"
   sodipodi:docname="Dash_Information.svg"
   inkscape:version="1.2 (1:1.2.1+202207142221+cd75a1ee6d)"
   xmlns:inkscape="http://www.inkscape.org/namespaces/inkscape"
   xmlns:sodipodi="http://sodipodi.sourceforge.net/DTD/sodipodi-0.dtd"
   xmlns="http://www.w3.org/2000/svg"
   xmlns:svg="http://www.w3.org/2000/svg">
  <defs
     id="defs12" />
  <sodipodi:namedview
     id="namedview10"
     pagecolor="#ffffff"
     bordercolor="#666666"
     borderopacity="1.0"
     inkscape:showpageshadow="2"
     inkscape:pageopacity="0.0"
     inkscape:pagecheckerboard="0"
     inkscape:deskcolor="#d1d1d1"
     showgrid="false"
     inkscape:zoom="53.125"
     inkscape:cx="8.0282353"
     inkscape:cy="8"
     inkscape:window-width="1920"
     inkscape:window-height="1053"
     inkscape:window-x="0"
     inkscape:window-y="27"
     inkscape:window-maximized="1"
     inkscape:current-layer="svg8" />
  <g
     fill="gray"
     id="g6"
     style="fill:#67a7ff;fill-opacity:1">
    <path
       d="m8 16a8 8 0 0 1-8-8 8 8 0 0 1 8-8 8 8 0 0 1 8 8 8 8 0 0 1-8 8zm0-1a7 7 0 0 0 7-7 7 7 0 0 0-7-7 7 7 0 0 0-7 7 7 7 0 0 0 7 7z"
       id="path2"
       style="fill:#67a7ff;fill-opacity:1" />
    <path
       d="M8 3.75c-.386 0-.69.124-.914.373A1.27 1.27 0 0 0 6.75 5c0 .336.112.628.336.877.224.249.528.373.914.373s.69-.124.914-.373A1.27 1.27 0 0 0 9.25 5a1.27 1.27 0 0 0-.336-.877C8.69 3.874 8.386 3.75 8 3.75zM7 7v5h2V7z"
       font-family="Ubuntu"
       font-weight="400"
       letter-spacing="0"
       word-spacing="0"
       id="path4"
       style="fill:#67a7ff;fill-opacity:1" />
  </g>
</svg>
