<?xml version="1.0" encoding="UTF-8" standalone="no"?>
<svg
   viewBox="0 0 14 15"
   version="1.1"
   id="svg4"
   sodipodi:docname="Dash_SNS.svg"
   width="14"
   height="15"
   inkscape:version="1.2 (1:1.2.1+202207142221+cd75a1ee6d)"
   xmlns:inkscape="http://www.inkscape.org/namespaces/inkscape"
   xmlns:sodipodi="http://sodipodi.sourceforge.net/DTD/sodipodi-0.dtd"
   xmlns="http://www.w3.org/2000/svg"
   xmlns:svg="http://www.w3.org/2000/svg">
  <defs
     id="defs8" />
  <sodipodi:namedview
     id="namedview6"
     pagecolor="#ffffff"
     bordercolor="#666666"
     borderopacity="1.0"
     inkscape:showpageshadow="2"
     inkscape:pageopacity="0.0"
     inkscape:pagecheckerboard="0"
     inkscape:deskcolor="#d1d1d1"
     showgrid="false"
     inkscape:zoom="53.125"
     inkscape:cx="8.0094118"
     inkscape:cy="8"
     inkscape:window-width="1920"
     inkscape:window-height="1053"
     inkscape:window-x="0"
     inkscape:window-y="27"
     inkscape:window-maximized="1"
     inkscape:current-layer="svg4" />
  <path
     d="M 14,2.5 C 14,1.125 12.875,0 11.5,0 A 2.508,2.508 0 0 0 9,2.5 C 9,3.875 10.125,5 11.5,5 12.875,5 14,3.875 14,2.5 Z m 0,10.000001 c 0,-1.375 -1.125,-2.5000013 -2.5,-2.5000013 A 2.508,2.508 0 0 0 9,12.500001 c 0,1.375 1.125,2.5 2.5,2.5 1.375,0 2.5,-1.125 2.5,-2.5 z M 13,2.5 C 13,3.334 12.334,4 11.5,4 10.666,4 10,3.334 10,2.5 10,1.666 10.666,0.99999998 11.5,0.99999998 12.334,0.99999998 13,1.666 13,2.5 Z m 0,10.000001 c 0,0.834 -0.666,1.5 -1.5,1.5 -0.834,0 -1.5,-0.666 -1.5,-1.5 0,-0.834 0.666,-1.5 1.5,-1.5 0.834,0 1.5,0.666 1.5,1.5 z M 8.734,4.61 A 3.495,3.495 0 0 1 8.24,3.738 L 4.387,5.881 A 2.487,2.487 0 0 0 2.5,5 2.508,2.508 0 0 0 0,7.5 C 0,8.875 1.125,9.9999997 2.5,9.9999997 3.255,9.9999997 3.927,9.653 4.387,9.12 l 3.853,2.142001 c 0.122,-0.316 0.29,-0.606 0.494,-0.871 L 4.874,8.246 C 4.947,8.01 5,7.761 5,7.5 5,7.239 4.948,6.991 4.873,6.754 Z M 4,7.5 C 4,8.334 3.334,9 2.5,9 1.666,9 0.99999996,8.334 0.99999996,7.5 0.99999996,6.666 1.666,6 2.5,6 3.334,6 4,6.666 4,7.5 Z"
     fill="#808080"
     font-family="sans-serif"
     font-weight="400"
     overflow="visible"
     style="font-variant-ligatures:normal;font-variant-position:normal;font-variant-caps:normal;font-variant-numeric:normal;font-variant-alternates:normal;font-feature-settings:normal;text-indent:0;text-decoration-line:none;text-decoration-style:solid;text-decoration-color:#000000;text-transform:none;text-orientation:mixed;shape-padding:0;isolation:auto;mix-blend-mode:normal;fill:#ffffff"
     white-space="normal"
     id="path2" />
</svg>
