<?xml version="1.0" encoding="UTF-8" standalone="no"?>
<svg
   version="1.1"
   viewBox="0 0 12 14"
   id="svg4"
   sodipodi:docname="Dash_Delivery.svg"
   width="12"
   height="14"
   inkscape:version="1.2 (1:1.2.1+202207142221+cd75a1ee6d)"
   xmlns:inkscape="http://www.inkscape.org/namespaces/inkscape"
   xmlns:sodipodi="http://sodipodi.sourceforge.net/DTD/sodipodi-0.dtd"
   xmlns="http://www.w3.org/2000/svg"
   xmlns:svg="http://www.w3.org/2000/svg">
  <defs
     id="defs8" />
  <sodipodi:namedview
     id="namedview6"
     pagecolor="#ffffff"
     bordercolor="#666666"
     borderopacity="1.0"
     inkscape:showpageshadow="2"
     inkscape:pageopacity="0.0"
     inkscape:pagecheckerboard="0"
     inkscape:deskcolor="#d1d1d1"
     showgrid="false"
     inkscape:zoom="53.125"
     inkscape:cx="8.0094118"
     inkscape:cy="8"
     inkscape:window-width="1920"
     inkscape:window-height="1053"
     inkscape:window-x="0"
     inkscape:window-y="27"
     inkscape:window-maximized="1"
     inkscape:current-layer="svg4" />
  <path
     d="M 6.00007,0 C 4.47357,0 3.45617,0.78113 2.92777,1.8379 2.39939,2.8947 2.25281,4.191 2.12699,5.4492 2.00117,6.7074 1.89822,7.9354 1.59379,8.7656 1.44158,9.18071 1.24669,9.48529 1.0059,9.68357 0.76512,9.8818601 0.47003,9.9999801 0,9.9999801 V 10.99998 H 12 V 9.9999801 c -0.46991,0 -0.76502,-0.11812 -1.0059,-0.3164101 C 10.75332,9.48528 10.55845,9.18071 10.40621,8.7656 10.10179,7.93538 9.9988301,6.7074 9.8730101,5.4492 9.74719,4.191 9.6006,2.8946 9.07223,1.8379 8.54385,0.7811 7.52653,0 5.99993,0 Z m 0,1 c 1.2235,0 1.7686,0.46684 2.1777,1.2852 0.40914,0.81824 0.57506,2.0219 0.69922,3.2637 0.12418,1.2418 0.2087,2.516 0.5918,3.5605 0.12675,0.34569 0.3692301,0.60918 0.58789,0.89062 H 1.94338 C 2.16202,9.71853 2.4045,9.45505 2.53127,9.1094 2.91437,8.0646 2.99887,6.7905 3.12307,5.5489 3.24725,4.3071 3.41317,3.1035 3.82229,2.2852 4.23143,1.46696 4.77662,1 5.99999,1 Z m -2,11 c 0.01251,1.1086 0.91483,2 2.0234,2 1.1087,0 2.0109,-0.89138 2.0234,-2 z"
     fill="#808080"
     style="font-variant-ligatures:normal;font-variant-position:normal;font-variant-caps:normal;font-variant-numeric:normal;font-variant-alternates:normal;font-variant-east-asian:normal;font-feature-settings:normal;font-variation-settings:normal;text-indent:0;text-decoration-line:none;text-decoration-style:solid;text-decoration-color:#000000;text-transform:none;text-orientation:mixed;white-space:normal;shape-padding:0;shape-margin:0;inline-size:0;isolation:auto;mix-blend-mode:normal;fill:#ffffff"
     id="path2" />
</svg>
