<?xml version="1.0" encoding="UTF-8" standalone="no"?>
<svg
   viewBox="0 0 14 14"
   version="1.1"
   id="svg4"
   sodipodi:docname="Dash_Search.svg"
   width="14"
   height="14"
   inkscape:version="1.2 (1:1.2.1+202207142221+cd75a1ee6d)"
   xmlns:inkscape="http://www.inkscape.org/namespaces/inkscape"
   xmlns:sodipodi="http://sodipodi.sourceforge.net/DTD/sodipodi-0.dtd"
   xmlns="http://www.w3.org/2000/svg"
   xmlns:svg="http://www.w3.org/2000/svg">
  <defs
     id="defs8" />
  <sodipodi:namedview
     id="namedview6"
     pagecolor="#ffffff"
     bordercolor="#666666"
     borderopacity="1.0"
     inkscape:showpageshadow="2"
     inkscape:pageopacity="0.0"
     inkscape:pagecheckerboard="0"
     inkscape:deskcolor="#d1d1d1"
     showgrid="false"
     inkscape:zoom="53.125"
     inkscape:cx="8.0282353"
     inkscape:cy="8"
     inkscape:window-width="1920"
     inkscape:window-height="1053"
     inkscape:window-x="0"
     inkscape:window-y="27"
     inkscape:window-maximized="1"
     inkscape:current-layer="svg4" />
  <path
     d="M 6,0 C 2.69,0 0,2.6900001 0,6 0,9.3100001 2.69,12 6,12 A 5.948,5.948 0 0 0 9.664,10.727 L 12.527,13.59 13.59,12.527 10.727,9.6640001 A 5.949,5.949 0 0 0 12,6 C 12,2.6900001 9.31,0 6,0 Z M 6,1 A 5,5 0 0 1 11,6 5,5 0 0 1 6,11 5,5 0 0 1 1,6.0000001 5,5 0 0 1 6,1 Z"
     fill="#808080"
     font-family="sans-serif"
     font-weight="400"
     overflow="visible"
     style="font-variant-ligatures:none;font-variant-position:normal;font-variant-caps:normal;font-variant-numeric:normal;font-variant-alternates:normal;font-feature-settings:normal;text-indent:0;text-decoration-line:none;text-decoration-style:solid;text-decoration-color:#000000;text-transform:none;shape-padding:0;isolation:auto;mix-blend-mode:normal;fill:#ffffff"
     white-space="normal"
     id="path2" />
</svg>
