<?xml version="1.0" encoding="UTF-8" standalone="no"?>
<svg
   viewBox="0 0 15 13"
   version="1.1"
   id="svg1212"
   sodipodi:docname="Dash_YouTube.svg"
   width="15"
   height="13"
   inkscape:version="1.2 (1:1.2.1+202207142221+cd75a1ee6d)"
   xmlns:inkscape="http://www.inkscape.org/namespaces/inkscape"
   xmlns:sodipodi="http://sodipodi.sourceforge.net/DTD/sodipodi-0.dtd"
   xmlns="http://www.w3.org/2000/svg"
   xmlns:svg="http://www.w3.org/2000/svg">
  <defs
     id="defs1216" />
  <sodipodi:namedview
     id="namedview1214"
     pagecolor="#ffffff"
     bordercolor="#666666"
     borderopacity="1.0"
     inkscape:showpageshadow="2"
     inkscape:pageopacity="0.0"
     inkscape:pagecheckerboard="0"
     inkscape:deskcolor="#d1d1d1"
     showgrid="false"
     inkscape:zoom="53.125"
     inkscape:cx="7.1623529"
     inkscape:cy="8"
     inkscape:window-width="1920"
     inkscape:window-height="1053"
     inkscape:window-x="0"
     inkscape:window-y="27"
     inkscape:window-maximized="1"
     inkscape:current-layer="svg1212" />
  <path
     d="m 0,0 v 13 h 1 v -1 h 1 v 1 h 11 v -1 h 1 v 1 h 1 V 0 H 14 V 1 H 13 V 0 H 2 V 1 H 1 V 0 Z m 3,1 h 9 V 6 H 3 Z M 1,2 H 2 V 3 H 1 Z m 12,0 h 1 V 3 H 13 Z M 1,4 H 2 V 5 H 1 Z m 12,0 h 1 V 5 H 13 Z M 1,6 H 2 V 7 H 1 Z m 12,0 h 1 V 7 H 13 Z M 3,7 h 9 v 5 H 3 Z M 1,8 H 2 V 9 H 1 Z m 12,0 h 1 V 9 H 13 Z M 1,10 h 1 v 1 H 1 Z m 12,0 h 1 v 1 h -1 z"
     fill="#808080"
     overflow="visible"
     id="path1210"
     style="fill:#ffffff" />
</svg>
