<?xml version="1.0" encoding="UTF-8" standalone="no"?>
<svg
   version="1.1"
   viewBox="0 0 16 14"
   id="svg6"
   sodipodi:docname="Dash_MultiTag.svg"
   width="16"
   height="14"
   inkscape:version="1.2 (1:1.2.1+202207142221+cd75a1ee6d)"
   xmlns:inkscape="http://www.inkscape.org/namespaces/inkscape"
   xmlns:sodipodi="http://sodipodi.sourceforge.net/DTD/sodipodi-0.dtd"
   xmlns="http://www.w3.org/2000/svg"
   xmlns:svg="http://www.w3.org/2000/svg">
  <defs
     id="defs10" />
  <sodipodi:namedview
     id="namedview8"
     pagecolor="#ffffff"
     bordercolor="#666666"
     borderopacity="1.0"
     inkscape:showpageshadow="2"
     inkscape:pageopacity="0.0"
     inkscape:pagecheckerboard="0"
     inkscape:deskcolor="#d1d1d1"
     showgrid="false"
     inkscape:zoom="53.125"
     inkscape:cx="8.0094118"
     inkscape:cy="8"
     inkscape:window-width="1920"
     inkscape:window-height="1053"
     inkscape:window-x="0"
     inkscape:window-y="27"
     inkscape:window-maximized="1"
     inkscape:current-layer="svg6" />
  <g
     transform="translate(-353.04897,-479.15)"
     id="g4"
     style="fill:#ffffff">
    <path
       d="m 362.74,479.15 -0.74302,0.74301 1.4142,1.4142 3.635,3.6322 c 0.43894,0.43888 0.69599,0.79181 0.81621,1.0565 0.1203,0.26473 0.12586,0.42584 0.0649,0.63667 -0.12165,0.42066 -0.70285,1.0671 -1.6241,2.0108 l -2.3569,2.3569 0.74302,0.74302 1.4138,-1.4138 0.94603,-0.94879 v -0.003 c 0.92101,-0.94322 1.635,-1.5917 1.8852,-2.4569 0.12504,-0.43261 0.0842,-0.91204 -0.11877,-1.359 -0.20294,-0.447 -0.54165,-0.87871 -1.0289,-1.3659 l -3.664,-3.664 z m -2.9251,0.60491 c -0.234,-0.234 -0.55953,-0.37565 -0.91703,-0.37566 l -4.5479,-0.001 c -0.715,0 -1.301,0.58597 -1.301,1.301 v 4.5492 c 0,0.3575 0.14205,0.68343 0.38255,0.92393 l 5.8516,5.8488 c 0.234,0.234 0.55814,0.37704 0.91564,0.37704 0.35751,0 0.68165,-0.14206 0.91565,-0.38256 l 4.5506,-4.5506 c 0.2405,-0.23399 0.38256,-0.55815 0.38256,-0.91565 0,-0.3575 -0.14856,-0.68993 -0.38256,-0.92393 z m -0.7665,0.62286 6.038,6.1126 -4.9525,4.9525 -6.0698,-6.0753 -0.0152,-4.9898 c 0.40522,-0.004 0.82091,-10e-4 1.2402,0 1.2578,0.004 2.555,0.0191 3.7593,0 z m -2.2926,1.2927 a 1,1 0 0 0 -0.7071,-0.29279 1,1 0 0 0 -0.9999,0.99989 1,1 0 0 0 0.9999,0.9999 1,1 0 0 0 0.99989,-0.9999 1,1 0 0 0 -0.29279,-0.7071 z"
       color="#000000"
       color-rendering="auto"
       dominant-baseline="auto"
       fill="#808080"
       image-rendering="auto"
       shape-rendering="auto"
       solid-color="#000000"
       style="font-variant-ligatures:normal;font-variant-position:normal;font-variant-caps:normal;font-variant-numeric:normal;font-variant-alternates:normal;font-feature-settings:normal;text-indent:0;text-decoration-line:none;text-decoration-style:solid;text-decoration-color:#000000;text-transform:none;text-orientation:mixed;white-space:normal;shape-padding:0;isolation:auto;mix-blend-mode:normal;fill:#ffffff"
       id="path2" />
  </g>
</svg>
