<?xml version="1.0" encoding="UTF-8" standalone="no"?>
<!-- Generator: Adobe Illustrator 16.0.4, SVG Export Plug-In . SVG Version: 6.00 Build 0)  -->

<svg
   version="1.1"
   id="AW"
   x="0px"
   y="0px"
   width="199"
   height="199"
   viewBox="0 0 199 199"
   enable-background="new 0 0 1190.551 841.89"
   xml:space="preserve"
   sodipodi:docname="Dash_Ubuntu.svg"
   inkscape:version="1.2 (1:1.2.1+202207142221+cd75a1ee6d)"
   xmlns:inkscape="http://www.inkscape.org/namespaces/inkscape"
   xmlns:sodipodi="http://sodipodi.sourceforge.net/DTD/sodipodi-0.dtd"
   xmlns="http://www.w3.org/2000/svg"
   xmlns:svg="http://www.w3.org/2000/svg"><defs
   id="defs286">
	
	

		
		
	</defs><sodipodi:namedview
   id="namedview284"
   pagecolor="#ffffff"
   bordercolor="#666666"
   borderopacity="1.0"
   inkscape:showpageshadow="2"
   inkscape:pageopacity="0.0"
   inkscape:pagecheckerboard="0"
   inkscape:deskcolor="#d1d1d1"
   showgrid="false"
   inkscape:zoom="2.0192661"
   inkscape:cx="122.32167"
   inkscape:cy="196.11085"
   inkscape:window-width="1920"
   inkscape:window-height="1053"
   inkscape:window-x="0"
   inkscape:window-y="27"
   inkscape:window-maximized="1"
   inkscape:current-layer="AW" />
<path
   id="path275"
   style="fill:#ffffff"
   d="M 99.212891 0 C 44.415945 1.8947787e-14 0 44.416945 0 99.212891 C 1.8947787e-14 154.00284 44.415945 198.42578 99.212891 198.42578 C 154.00784 198.42578 198.42578 154.00284 198.42578 99.212891 C 198.42578 44.416945 154.00784 0 99.212891 0 z M 131.67969 30.818359 C 133.73551 30.871766 135.80922 31.423126 137.71484 32.523438 C 143.81684 36.045434 145.90481 43.844319 142.38281 49.945312 C 138.86082 56.045306 131.06093 58.135278 124.96094 54.613281 C 118.86194 51.092285 116.77097 43.2914 120.29297 37.191406 C 122.71434 32.99766 127.15689 30.700864 131.67969 30.818359 z M 99.212891 44.408203 C 104.19289 44.408203 109.01461 45.077267 113.59961 46.322266 C 114.40761 51.50426 117.46533 56.288237 122.36133 59.115234 C 127.25332 61.940232 132.92155 62.197545 137.81055 60.310547 C 147.04154 69.469538 153.02639 81.891186 153.90039 95.701172 L 135.44727 95.988281 C 133.81427 77.4073 118.21587 62.835938 99.212891 62.835938 C 93.735896 62.835938 88.541808 64.047846 83.882812 66.214844 L 74.902344 50.082031 C 82.228336 46.451035 90.481899 44.408203 99.212891 44.408203 z M 68.822266 53.601562 L 78.302734 69.441406 C 68.947744 76.0254 62.833984 86.904903 62.833984 99.212891 C 62.833984 111.52088 68.948744 122.39848 78.302734 128.98047 L 68.822266 144.82227 C 57.843277 137.49027 49.660934 126.30425 46.210938 113.19727 C 50.296933 109.90427 52.912109 104.86393 52.912109 99.210938 C 52.912109 93.557943 50.296887 88.517559 46.212891 85.226562 C 49.661887 72.119576 57.844277 60.931555 68.822266 53.601562 z M 34.960938 86.455078 C 42.00593 86.455078 47.716797 92.166945 47.716797 99.210938 C 47.716797 106.25593 42.00593 111.9668 34.960938 111.9668 C 27.915945 111.9668 22.203125 106.25593 22.203125 99.210938 C 22.203125 92.166945 27.915945 86.455078 34.960938 86.455078 z M 135.44727 102.43555 L 153.90039 102.72461 C 153.02639 116.5356 147.03958 128.95624 137.80859 138.11523 C 132.9196 136.22724 127.25237 136.4856 122.35938 139.30859 C 117.46438 142.13559 114.40761 146.91957 113.59961 152.10156 C 109.01361 153.34656 104.19189 154.01562 99.212891 154.01562 C 90.481899 154.01562 82.227336 151.97479 74.902344 148.3418 L 83.882812 132.20898 C 88.541808 134.37698 93.735896 135.5918 99.212891 135.5918 C 118.21687 135.5918 133.81427 121.01553 135.44727 102.43555 z M 130.99414 142.10547 C 135.51697 141.98775 139.96144 144.28408 142.38281 148.47852 C 145.90481 154.58051 143.81484 162.38135 137.71484 165.90234 C 131.61485 169.42434 123.81497 167.33437 120.29297 161.23438 C 116.77097 155.13338 118.86094 147.33254 124.96094 143.81055 C 126.86687 142.71024 128.93831 142.15898 130.99414 142.10547 z " />
</svg>
