<?xml version="1.0" encoding="UTF-8" standalone="no"?>
<svg
   version="1.1"
   viewBox="0 0 16 16"
   id="svg6"
   sodipodi:docname="Dash_MailDelivery.svg"
   inkscape:version="1.2 (1:1.2.1+202207142221+cd75a1ee6d)"
   xmlns:inkscape="http://www.inkscape.org/namespaces/inkscape"
   xmlns:sodipodi="http://sodipodi.sourceforge.net/DTD/sodipodi-0.dtd"
   xmlns="http://www.w3.org/2000/svg"
   xmlns:svg="http://www.w3.org/2000/svg">
  <defs
     id="defs10" />
  <sodipodi:namedview
     id="namedview8"
     pagecolor="#ffffff"
     bordercolor="#666666"
     borderopacity="1.0"
     inkscape:showpageshadow="2"
     inkscape:pageopacity="0.0"
     inkscape:pagecheckerboard="0"
     inkscape:deskcolor="#d1d1d1"
     showgrid="false"
     inkscape:zoom="53.125"
     inkscape:cx="8.0094118"
     inkscape:cy="8"
     inkscape:window-width="1920"
     inkscape:window-height="1053"
     inkscape:window-x="0"
     inkscape:window-y="27"
     inkscape:window-maximized="1"
     inkscape:current-layer="svg6" />
  <g
     transform="translate(-252,-480)"
     id="g4"
     style="fill:#ffffff">
    <path
       d="m255.5 481c-0.277 0-0.5 0.223-0.5 0.5s0.223 0.5 0.5 0.5h9c0.277 0 0.5-0.223 0.5-0.5s-0.223-0.5-0.5-0.5zm-1 2c-0.277 0-0.5 0.223-0.5 0.5s0.223 0.5 0.5 0.5h11c0.277 0 0.5-0.223 0.5-0.5s-0.223-0.5-0.5-0.5zm2 1.998c-1 0-1.7938-0.0367-2.4727 0.30273-0.33944 0.16973-0.63 0.46244-0.79687 0.83789-0.16687 0.37546-0.23047 0.81771-0.23047 1.3594v5c0 0.54167 0.0636 0.98391 0.23047 1.3594 0.16687 0.37545 0.45743 0.66816 0.79687 0.83789 0.67889 0.33944 1.4727 0.30274 2.4727 0.30274h7c1 0 1.7938 0.0367 2.4727-0.30274 0.33944-0.16973 0.63-0.46244 0.79687-0.83789 0.16687-0.37546 0.23047-0.8177 0.23047-1.3594v-5c0-0.54167-0.0636-0.98392-0.23047-1.3594-0.16687-0.37545-0.45743-0.66816-0.79687-0.83789-0.67889-0.33944-1.4727-0.30273-2.4727-0.30273zm0 1h7c1 0 1.7062 0.0367 2.0273 0.19726 0.16056 0.0803 0.245 0.16256 0.32813 0.34961 0.0225 0.0507 0.0381 0.13411 0.0566 0.20313l-5.9121 3.1816-5.9121-3.1816c0.0186-0.069 0.0341-0.15244 0.0566-0.20313 0.0831-0.18705 0.16757-0.26934 0.32813-0.34961 0.32111-0.16056 1.0273-0.19726 2.0273-0.19726zm-2.5 1.8359 6 3.2324 6-3.2324v4.6641c0 0.45833-0.0614 0.76608-0.14453 0.95312-0.0831 0.18705-0.16757 0.26934-0.32813 0.34961-0.32111 0.16056-1.0273 0.19727-2.0273 0.19727h-7c-1 0-1.7062-0.0367-2.0273-0.19727-0.16056-0.0803-0.245-0.16256-0.32813-0.34961-0.08313-0.18704-0.14453-0.49479-0.14453-0.95312z"
       color="#000000"
       color-rendering="auto"
       dominant-baseline="auto"
       fill="#808080"
       image-rendering="auto"
       shape-rendering="auto"
       solid-color="#000000"
       style="font-feature-settings:normal;font-variant-alternates:normal;font-variant-caps:normal;font-variant-ligatures:normal;font-variant-numeric:normal;font-variant-position:normal;isolation:auto;mix-blend-mode:normal;shape-padding:0;text-decoration-color:#000000;text-decoration-line:none;text-decoration-style:solid;text-indent:0;text-orientation:mixed;text-transform:none;white-space:normal;fill:#ffffff"
       id="path2" />
  </g>
</svg>
