<?xml version="1.0" encoding="UTF-8" standalone="no"?>
<svg
   viewBox="0 0 16 16"
   version="1.1"
   id="svg2567"
   sodipodi:docname="Dash_Help.svg"
   inkscape:version="1.2 (1:1.2.1+202207142221+cd75a1ee6d)"
   xmlns:inkscape="http://www.inkscape.org/namespaces/inkscape"
   xmlns:sodipodi="http://sodipodi.sourceforge.net/DTD/sodipodi-0.dtd"
   xmlns="http://www.w3.org/2000/svg"
   xmlns:svg="http://www.w3.org/2000/svg">
  <defs
     id="defs2571" />
  <sodipodi:namedview
     id="namedview2569"
     pagecolor="#ffffff"
     bordercolor="#666666"
     borderopacity="1.0"
     inkscape:showpageshadow="2"
     inkscape:pageopacity="0.0"
     inkscape:pagecheckerboard="0"
     inkscape:deskcolor="#d1d1d1"
     showgrid="false"
     inkscape:zoom="53.125"
     inkscape:cx="8.0094118"
     inkscape:cy="8"
     inkscape:window-width="1920"
     inkscape:window-height="1053"
     inkscape:window-x="0"
     inkscape:window-y="27"
     inkscape:window-maximized="1"
     inkscape:current-layer="svg2567" />
  <g
     fill="gray"
     id="g2565"
     style="fill:#ffffff">
    <path
       d="m8 0a8 8 0 0 0-8 8 8 8 0 0 0 8 8 8 8 0 0 0 8-8 8 8 0 0 0-8-8zm0 1a7 7 0 0 1 7 7 7 7 0 0 1-7 7 7 7 0 0 1-7-7 7 7 0 0 1 7-7z"
       id="path2561"
       style="fill:#ffffff" />
    <path
       d="M8.226 3.001c-.444 0-.864.051-1.26.153-.36.094-.679.222-.973.371l.3.832c.574-.291 1.162-.45 1.764-.45.506 0 .907.133 1.184.41.272.262.41.613.41 1.03 0 .259-.06.501-.18.723-.108.214-.25.419-.424.613-.17.19-.35.379-.54.568v.001h-.002c-.185.176-.36.37-.527.583l-.001.002c-.164.2-.3.418-.41.655-.097.231-.147.49-.147.779 0 .174.02.336.047.495h.906c0-.02-.005-.037-.005-.057v-.155c0-.323.064-.617.193-.876.126-.26.28-.498.465-.712l.001-.002c.182-.22.382-.43.601-.63.214-.194.408-.398.584-.61.174-.211.32-.436.439-.673.115-.24.174-.511.174-.819 0-.243-.04-.497-.123-.762v-.002l-.001-.002a1.703 1.703 0 0 0-.4-.721 2.161 2.161 0 0 0-.798-.526H9.5l-.002-.002C9.177 3.075 8.752 3 8.225 3zM8 11.304c-.27 0-.468.082-.619.25a.854.854 0 0 0-.229.598c0 .232.074.426.23.598.15.168.347.25.618.25.27 0 .468-.082.62-.25a.855.855 0 0 0 .228-.598.854.854 0 0 0-.229-.598c-.15-.168-.348-.25-.619-.25z"
       font-family="Ubuntu"
       font-size="72.036"
       font-weight="500"
       letter-spacing="0"
       text-anchor="middle"
       word-spacing="0"
       id="path2563"
       style="fill:#ffffff" />
  </g>
</svg>
