<?xml version="1.0" encoding="UTF-8" standalone="no"?>
<svg
   viewBox="0 0 14 13.4"
   version="1.1"
   id="svg4"
   sodipodi:docname="Dash_Star.svg"
   width="14"
   height="13.4"
   inkscape:version="1.2 (1:1.2.1+202207142221+cd75a1ee6d)"
   xmlns:inkscape="http://www.inkscape.org/namespaces/inkscape"
   xmlns:sodipodi="http://sodipodi.sourceforge.net/DTD/sodipodi-0.dtd"
   xmlns="http://www.w3.org/2000/svg"
   xmlns:svg="http://www.w3.org/2000/svg">
  <defs
     id="defs8" />
  <sodipodi:namedview
     id="namedview6"
     pagecolor="#ffffff"
     bordercolor="#666666"
     borderopacity="1.0"
     inkscape:showpageshadow="2"
     inkscape:pageopacity="0.0"
     inkscape:pagecheckerboard="0"
     inkscape:deskcolor="#d1d1d1"
     showgrid="false"
     inkscape:zoom="53.125"
     inkscape:cx="8"
     inkscape:cy="8"
     inkscape:window-width="1920"
     inkscape:window-height="1053"
     inkscape:window-x="0"
     inkscape:window-y="27"
     inkscape:window-maximized="1"
     inkscape:current-layer="svg4" />
  <path
     d="M 7.013,0 7.011,0.001 7.01,0.003 7.008,0.004 7.006,0.006 C 6.163,1.816 5.511,3.66 5.14,4.79 3.921,4.79 1.914,4.837 0,5.085 v 0.002 l 0.001,0.002 0.001,0.002 0.001,10e-4 c 1.46,1.362 3.014,2.551 3.975,3.253 -0.376,1.16 -0.953,3.084 -1.308,4.98 H 2.678 C 4.424,12.356 6.036,11.247 7,10.55 c 0.987,0.716 2.639,1.859 4.333,2.783 v -0.002 -0.002 -0.002 l 10e-4,-0.002 C 10.953,11.365 10.396,9.489 10.031,8.357 11.017,7.64 12.614,6.422 14.016,5.097 L 14.013,5.096 H 14.011 L 14.009,5.094 14.008,5.092 C 12.025,4.85 10.07,4.8 8.88,4.797 8.504,3.637 7.839,1.743 7.011,0 Z"
     fill="#808080"
     overflow="visible"
     id="path2"
     style="fill:#ffffff" />
</svg>
