<?xml version="1.0" encoding="UTF-8" standalone="no"?>
<svg
   viewBox="0 0 5 16"
   version="1.1"
   id="svg135"
   sodipodi:docname="go-previous-symbolic.svg"
   width="5"
   height="16"
   inkscape:version="1.2 (1:1.2.1+202207142221+cd75a1ee6d)"
   xmlns:inkscape="http://www.inkscape.org/namespaces/inkscape"
   xmlns:sodipodi="http://sodipodi.sourceforge.net/DTD/sodipodi-0.dtd"
   xmlns="http://www.w3.org/2000/svg"
   xmlns:svg="http://www.w3.org/2000/svg">
  <defs
     id="defs139" />
  <sodipodi:namedview
     id="namedview137"
     pagecolor="#ffffff"
     bordercolor="#666666"
     borderopacity="1.0"
     inkscape:showpageshadow="2"
     inkscape:pageopacity="0.0"
     inkscape:pagecheckerboard="0"
     inkscape:deskcolor="#d1d1d1"
     showgrid="false"
     inkscape:zoom="53.125"
     inkscape:cx="8.0094118"
     inkscape:cy="8"
     inkscape:window-width="1920"
     inkscape:window-height="1053"
     inkscape:window-x="0"
     inkscape:window-y="27"
     inkscape:window-maximized="1"
     inkscape:current-layer="svg135" />
  <path
     d="M 5,0 C 4.31,0.874 3.603,1.757 2.992,2.656 2.313,3.656 1.705,4.628 1.167,5.568 0.67000001,6.436 0.297,7.342 0,8 0.297,8.658 0.67000001,9.564 1.167,10.432 a 45.19,45.19 0 0 0 1.825,2.912 C 3.602,14.244 4.309,15.126 5,16 V 14.51 C 4.6,13.986 4.163,13.448 3.778,12.885 a 32.845,32.845 0 0 1 -1.37,-2.18 39.196,39.196 0 0 1 -1.285,-2.5 V 8.204 L 1.027,8 1.123,7.797 C 1.457,7.087 1.975,6.05 2.408,5.296 A 33.18,33.18 0 0 1 3.778,3.115 C 4.163,2.553 4.6,2.015 5,1.49 Z"
     fill="#808080"
     id="path133"
     style="fill:#ffffff" />
</svg>
