<?xml version="1.0" encoding="UTF-8" standalone="no"?>
<!-- Created with Inkscape (http://www.inkscape.org/) -->

<svg
   width="300"
   height="34"
   viewBox="0 0 79.375 8.9958344"
   version="1.1"
   id="svg5"
   inkscape:version="1.2 (1:1.2.1+202207142221+cd75a1ee6d)"
   sodipodi:docname="kledgebChannelLogo.svg"
   xmlns:inkscape="http://www.inkscape.org/namespaces/inkscape"
   xmlns:sodipodi="http://sodipodi.sourceforge.net/DTD/sodipodi-0.dtd"
   xmlns="http://www.w3.org/2000/svg"
   xmlns:svg="http://www.w3.org/2000/svg">
  <sodipodi:namedview
     id="namedview7"
     pagecolor="#ffffff"
     bordercolor="#666666"
     borderopacity="1.0"
     inkscape:showpageshadow="2"
     inkscape:pageopacity="0.0"
     inkscape:pagecheckerboard="0"
     inkscape:deskcolor="#d1d1d1"
     inkscape:document-units="mm"
     showgrid="false"
     inkscape:zoom="3.0289001"
     inkscape:cx="172.00963"
     inkscape:cy="64.379806"
     inkscape:window-width="1920"
     inkscape:window-height="1053"
     inkscape:window-x="0"
     inkscape:window-y="27"
     inkscape:window-maximized="1"
     inkscape:current-layer="layer1" />
  <defs
     id="defs2">
    <rect
       x="25.977409"
       y="51.276546"
       width="351.69958"
       height="53.162823"
       id="rect236" />
  </defs>
  <g
     inkscape:label="Layer 1"
     inkscape:groupmode="layer"
     id="layer1">
    <g
       aria-label="kledgeb Channel"
       transform="matrix(0.26458333,0,0,0.26458333,-3.9935618,-15.753398)"
       id="text234"
       style="font-size:34.6667px;line-height:1.25;white-space:pre;shape-inside:url(#rect236)">
      <path
         d="m 28.299231,86.113313 h 4.922671 v -6.170672 l 1.906669,-1.837335 4.922671,8.008007 h 5.962672 l -7.522673,-11.33601 6.760006,-6.586673 h -5.824005 l -6.20534,6.448006 V 61.36129 h -4.922671 z"
         style="font-weight:bold;font-family:'Helvetica Neue LT Pro';-inkscape-font-specification:'Helvetica Neue LT Pro Bold'"
         id="path291" />
      <path
         d="m 47.885895,86.113313 h 4.922672 V 61.36129 h -4.922672 z"
         style="font-weight:bold;font-family:'Helvetica Neue LT Pro';-inkscape-font-specification:'Helvetica Neue LT Pro Bold'"
         id="path293" />
      <path
         d="m 60.747219,75.22797 c 0.104,-1.386668 0.901334,-3.813337 4.090671,-3.813337 2.392002,0 3.46667,1.317335 3.917337,3.813337 z m 12.930679,3.120003 c 0.381334,-5.512005 -2.600003,-10.642677 -8.701341,-10.642677 -5.442672,0 -9.152009,4.090671 -9.152009,9.464009 0,5.546672 3.501337,9.429342 9.152009,9.429342 4.056003,0 7.002673,-1.768002 8.389341,-6.032006 H 69.03256 c -0.312,1.109335 -1.906668,2.322669 -3.88267,2.322669 -2.773336,0 -4.264004,-1.386668 -4.402671,-4.541337 z"
         style="font-weight:bold;font-family:'Helvetica Neue LT Pro';-inkscape-font-specification:'Helvetica Neue LT Pro Bold'"
         id="path295" />
      <path
         d="m 89.31256,77.099972 c 0,2.946669 -1.005334,5.789338 -4.229337,5.789338 -3.050669,0 -4.333337,-2.946669 -4.333337,-5.754672 0,-2.912002 1.109334,-5.720005 4.333337,-5.720005 3.189336,0 4.229337,2.773336 4.229337,5.685339 z m 0.06933,9.013341 h 4.680004 V 61.36129 h -4.922671 v 9.013342 h -0.06933 c -1.109334,-1.768002 -3.189336,-2.669336 -5.304004,-2.669336 -5.269339,0 -7.938674,4.472004 -7.938674,9.290676 0,4.992004 2.634669,9.602675 8.042674,9.602675 2.322668,0 4.29867,-0.832001 5.442671,-2.773336 h 0.06933 z"
         style="font-weight:bold;font-family:'Helvetica Neue LT Pro';-inkscape-font-specification:'Helvetica Neue LT Pro Bold'"
         id="path297" />
      <path
         d="m 106.12585,81.883976 c -3.05067,0 -3.98667,-2.808003 -3.98667,-5.373338 0,-2.669336 1.21333,-5.096005 3.98667,-5.096005 3.18933,0 4.19467,2.600002 4.19467,5.512005 0,2.565336 -1.38667,4.957338 -4.19467,4.957338 z m 8.87467,-13.693346 h -4.68 v 2.392002 h -0.0693 c -1.21333,-2.080002 -2.98133,-2.877336 -5.33867,-2.877336 -4.992003,0 -7.696006,4.229338 -7.696006,8.874675 0,4.922671 2.253336,9.013342 7.661336,9.013342 2.18401,0 4.29868,-0.866668 5.37334,-2.773336 h 0.0693 v 2.357335 c 0.0347,2.600003 -1.21334,4.437338 -3.95201,4.437338 -1.768,0 -3.224,-0.624001 -3.67467,-2.461336 h -4.888002 c 0.277334,4.056004 4.368002,5.754672 7.904012,5.754672 8.216,0 9.29067,-4.992004 9.29067,-7.938674 z"
         style="font-weight:bold;font-family:'Helvetica Neue LT Pro';-inkscape-font-specification:'Helvetica Neue LT Pro Bold'"
         id="path299" />
      <path
         d="m 123.00847,75.22797 c 0.104,-1.386668 0.90133,-3.813337 4.09067,-3.813337 2.392,0 3.46667,1.317335 3.91733,3.813337 z m 12.93067,3.120003 c 0.38134,-5.512005 -2.6,-10.642677 -8.70134,-10.642677 -5.44267,0 -9.15201,4.090671 -9.15201,9.464009 0,5.546672 3.50134,9.429342 9.15201,9.429342 4.05601,0 7.00268,-1.768002 8.38934,-6.032006 h -4.33333 c -0.312,1.109335 -1.90667,2.322669 -3.88267,2.322669 -2.77334,0 -4.26401,-1.386668 -4.40267,-4.541337 z"
         style="font-weight:bold;font-family:'Helvetica Neue LT Pro';-inkscape-font-specification:'Helvetica Neue LT Pro Bold'"
         id="path301" />
      <path
         d="m 151.98981,77.169305 c 0,2.981336 -1.28267,5.720005 -4.19467,5.720005 -2.91201,0 -4.19467,-2.738669 -4.19467,-5.720005 0,-3.050669 1.28266,-5.754672 4.19467,-5.754672 2.912,0 4.19467,2.704003 4.19467,5.754672 z m -13.13868,8.944008 h 4.68 v -2.288002 h 0.0693 c 1.07466,1.976002 3.25867,2.773336 5.89333,2.773336 3.57067,0 7.41868,-2.912003 7.41868,-9.464009 0,-6.552006 -3.84801,-9.429342 -7.41868,-9.429342 -2.21866,0 -4.43733,0.832001 -5.65067,2.669336 h -0.0693 V 61.36129 h -4.92267 z"
         style="font-weight:bold;font-family:'Helvetica Neue LT Pro';-inkscape-font-specification:'Helvetica Neue LT Pro Bold'"
         id="path303" />
      <path
         d="m 191.96043,69.681298 c -0.65866,-5.720005 -5.26933,-8.909341 -10.67734,-8.909341 -7.62667,0 -12.16801,5.720005 -12.16801,13.069345 0,7.14134 4.54134,12.861345 12.16801,12.861345 6.10134,0 10.33068,-3.917337 10.88534,-10.122676 h -5.26933 c -0.416,3.293336 -2.28801,5.546672 -5.61601,5.546672 -4.888,0 -6.72534,-4.160004 -6.72534,-8.285341 0,-4.333337 1.83734,-8.493341 6.72534,-8.493341 2.66934,0 5.02667,1.872002 5.40801,4.333337 z"
         style="font-weight:bold;font-family:'Helvetica Neue LT Pro';-inkscape-font-specification:'Helvetica Neue LT Pro Bold'"
         id="path305" />
      <path
         d="m 195.35775,86.113313 h 4.92267 v -9.394675 c 0,-3.640003 1.144,-5.130671 3.81334,-5.130671 2.32267,0 3.15467,1.456001 3.15467,4.40267 v 10.122676 h 4.92267 v -11.02401 c 0,-4.437337 -1.31734,-7.384007 -6.55201,-7.384007 -1.83733,0 -3.98667,0.936001 -5.23467,2.981336 h -0.104 V 61.36129 h -4.92267 z"
         style="font-weight:bold;font-family:'Helvetica Neue LT Pro';-inkscape-font-specification:'Helvetica Neue LT Pro Bold'"
         id="path307" />
      <path
         d="m 220.62972,73.702635 c 0.17333,-1.941335 1.352,-2.704002 3.25867,-2.704002 1.73333,0 3.18933,0.346667 3.18933,2.426669 0.208,4.021337 -11.85601,-0.346667 -11.92534,7.800007 0,3.67467 2.66934,5.373338 6.10134,5.373338 2.21867,0 4.472,-0.589334 6.032,-2.218669 0.0347,0.589334 0.17334,1.178668 0.34667,1.733335 h 4.99201 c -0.45067,-0.728 -0.62401,-2.357335 -0.62401,-3.98667 v -9.325342 c 0,-4.298671 -4.29867,-5.096005 -7.86934,-5.096005 -4.02133,0 -8.14667,1.421335 -8.424,5.997339 z m 6.448,5.477339 c 0,1.109334 -0.13866,4.125337 -3.98667,4.125337 -1.59466,0 -3.016,-0.485334 -3.016,-2.288002 0,-1.802669 1.38667,-2.357336 2.912,-2.63467 1.52534,-0.277333 3.25867,-0.312 4.09067,-1.040001 z"
         style="font-weight:bold;font-family:'Helvetica Neue LT Pro';-inkscape-font-specification:'Helvetica Neue LT Pro Bold'"
         id="path309" />
      <path
         d="m 235.81371,86.113313 h 4.92267 v -9.394675 c 0,-3.640003 1.14401,-5.130671 3.81334,-5.130671 2.32267,0 3.15467,1.456001 3.15467,4.40267 v 10.122676 h 4.92267 v -11.02401 c 0,-4.437337 -1.31733,-7.384007 -6.552,-7.384007 -2.08001,0 -4.22934,0.936001 -5.47734,2.981336 h -0.104 V 68.19063 h -4.68001 z"
         style="font-weight:bold;font-family:'Helvetica Neue LT Pro';-inkscape-font-specification:'Helvetica Neue LT Pro Bold'"
         id="path311" />
      <path
         d="m 256.37101,86.113313 h 4.92267 v -9.394675 c 0,-3.640003 1.144,-5.130671 3.81334,-5.130671 2.32267,0 3.15467,1.456001 3.15467,4.40267 v 10.122676 h 4.92267 v -11.02401 c 0,-4.437337 -1.31734,-7.384007 -6.55201,-7.384007 -2.08,0 -4.22933,0.936001 -5.47734,2.981336 h -0.104 V 68.19063 h -4.68 z"
         style="font-weight:bold;font-family:'Helvetica Neue LT Pro';-inkscape-font-specification:'Helvetica Neue LT Pro Bold'"
         id="path313" />
      <path
         d="m 280.98431,75.22797 c 0.104,-1.386668 0.90133,-3.813337 4.09067,-3.813337 2.392,0 3.46667,1.317335 3.91734,3.813337 z m 12.93068,3.120003 c 0.38133,-5.512005 -2.6,-10.642677 -8.70134,-10.642677 -5.44267,0 -9.15201,4.090671 -9.15201,9.464009 0,5.546672 3.50134,9.429342 9.15201,9.429342 4.056,0 7.00267,-1.768002 8.38934,-6.032006 h -4.33334 c -0.312,1.109335 -1.90667,2.322669 -3.88267,2.322669 -2.77333,0 -4.264,-1.386668 -4.40267,-4.541337 z"
         style="font-weight:bold;font-family:'Helvetica Neue LT Pro';-inkscape-font-specification:'Helvetica Neue LT Pro Bold'"
         id="path315" />
      <path
         d="m 296.96566,86.113313 h 4.92267 V 61.36129 h -4.92267 z"
         style="font-weight:bold;font-family:'Helvetica Neue LT Pro';-inkscape-font-specification:'Helvetica Neue LT Pro Bold'"
         id="path317" />
    </g>
  </g>
</svg>
