<?xml version="1.0" encoding="UTF-8" standalone="no"?>
<!-- Generator: Adobe Illustrator 24.2.3, SVG Export Plug-In . SVG Version: 6.00 Build 0)  -->

<svg
   version="1.1"
   id="Layer_1"
   x="0px"
   y="0px"
   viewBox="0 0 3100 600"
   xml:space="preserve"
   sodipodi:docname="TwitterLogo_kledgeb.svg"
   width="3100"
   height="600"
   inkscape:version="1.2 (1:1.2.1+202207142221+cd75a1ee6d)"
   xmlns:inkscape="http://www.inkscape.org/namespaces/inkscape"
   xmlns:sodipodi="http://sodipodi.sourceforge.net/DTD/sodipodi-0.dtd"
   xmlns="http://www.w3.org/2000/svg"
   xmlns:svg="http://www.w3.org/2000/svg"><defs
   id="defs13"><rect
     x="618.26239"
     y="745.013"
     width="627.68317"
     height="516.92834"
     id="rect8225" /></defs><sodipodi:namedview
   id="namedview11"
   pagecolor="#ffffff"
   bordercolor="#666666"
   borderopacity="1.0"
   inkscape:showpageshadow="2"
   inkscape:pageopacity="0.0"
   inkscape:pagecheckerboard="0"
   inkscape:deskcolor="#d1d1d1"
   showgrid="false"
   inkscape:zoom="0.265625"
   inkscape:cx="2132.7059"
   inkscape:cy="647.52941"
   inkscape:window-width="1920"
   inkscape:window-height="1053"
   inkscape:window-x="0"
   inkscape:window-y="27"
   inkscape:window-maximized="1"
   inkscape:current-layer="g415" />
<style
   type="text/css"
   id="style2">
	.st0{fill:#1D9BF0;}
	.st1{fill:#FFFFFF;}
</style>


<g
   id="g415"><g
     id="g246"
     transform="translate(100,100)"><g
       id="Dark_Blue">
	<path
   class="st0"
   d="M 350,400 H 50 C 22.4,400 0,377.6 0,350 V 50 C 0,22.4 22.4,0 50,0 h 300 c 27.6,0 50,22.4 50,50 v 300 c 0,27.6 -22.4,50 -50,50 z"
   id="path4" />
</g><g
       id="Logo__x2014__FIXED">
	<path
   class="st1"
   d="m 153.6,301.6 c 94.3,0 145.9,-78.2 145.9,-145.9 0,-2.2 0,-4.4 -0.1,-6.6 10,-7.2 18.7,-16.3 25.6,-26.6 -9.2,4.1 -19.1,6.8 -29.5,8.1 10.6,-6.3 18.7,-16.4 22.6,-28.4 -9.9,5.9 -20.9,10.1 -32.6,12.4 -9.4,-10 -22.7,-16.2 -37.4,-16.2 -28.3,0 -51.3,23 -51.3,51.3 0,4 0.5,7.9 1.3,11.7 -42.6,-2.1 -80.4,-22.6 -105.7,-53.6 -4.4,7.6 -6.9,16.4 -6.9,25.8 0,17.8 9.1,33.5 22.8,42.7 -8.4,-0.3 -16.3,-2.6 -23.2,-6.4 0,0.2 0,0.4 0,0.7 0,24.8 17.7,45.6 41.1,50.3 -4.3,1.2 -8.8,1.8 -13.5,1.8 -3.3,0 -6.5,-0.3 -9.6,-0.9 6.5,20.4 25.5,35.2 47.9,35.6 -17.6,13.8 -39.7,22 -63.7,22 -4.1,0 -8.2,-0.2 -12.2,-0.7 22.6,14.4 49.6,22.9 78.5,22.9"
   id="path7" />
</g></g><text
     xml:space="preserve"
     style="font-style:normal;font-weight:normal;font-size:531.866px;line-height:1.25;font-family:sans-serif;fill:#000000;fill-opacity:1;stroke:none;stroke-width:13.2966"
     x="580.58417"
     y="488.83887"
     id="text302"
     transform="scale(1.000448,0.99955222)"><tspan
       sodipodi:role="line"
       id="tspan300"
       x="580.58417"
       y="488.83887"
       style="font-style:normal;font-variant:normal;font-weight:bold;font-stretch:normal;font-family:'Helvetica Neue LT Pro';-inkscape-font-specification:'Helvetica Neue LT Pro Bold';stroke-width:13.2966">@kledgeb</tspan></text></g></svg>
