<?xml version="1.0" encoding="UTF-8" standalone="no"?>
<!-- Generator: Adobe Illustrator 24.2.3, SVG Export Plug-In . SVG Version: 6.00 Build 0)  -->

<svg
   version="1.1"
   id="Layer_1"
   x="0px"
   y="0px"
   viewBox="0 0 3100 600"
   xml:space="preserve"
   sodipodi:docname="TwitterLogo_kledgeb.svg"
   width="3100"
   height="600"
   inkscape:version="1.2 (1:1.2.1+202207142221+cd75a1ee6d)"
   xmlns:inkscape="http://www.inkscape.org/namespaces/inkscape"
   xmlns:sodipodi="http://sodipodi.sourceforge.net/DTD/sodipodi-0.dtd"
   xmlns="http://www.w3.org/2000/svg"
   xmlns:svg="http://www.w3.org/2000/svg"><defs
   id="defs13"><rect
     x="618.26239"
     y="745.013"
     width="627.68317"
     height="516.92834"
     id="rect8225" /></defs><sodipodi:namedview
   id="namedview11"
   pagecolor="#ffffff"
   bordercolor="#666666"
   borderopacity="1.0"
   inkscape:showpageshadow="2"
   inkscape:pageopacity="0.0"
   inkscape:pagecheckerboard="0"
   inkscape:deskcolor="#d1d1d1"
   showgrid="false"
   inkscape:zoom="0.265625"
   inkscape:cx="1867.2941"
   inkscape:cy="647.52941"
   inkscape:window-width="1920"
   inkscape:window-height="1053"
   inkscape:window-x="0"
   inkscape:window-y="27"
   inkscape:window-maximized="1"
   inkscape:current-layer="g415" />
<style
   type="text/css"
   id="style2">
	.st0{fill:#1D9BF0;}
	.st1{fill:#FFFFFF;}
</style>


<g
   id="g415"><g
     id="g246"
     transform="translate(100,100)"><g
       id="Dark_Blue">
	<path
   class="st0"
   d="M 350,400 H 50 C 22.4,400 0,377.6 0,350 V 50 C 0,22.4 22.4,0 50,0 h 300 c 27.6,0 50,22.4 50,50 v 300 c 0,27.6 -22.4,50 -50,50 z"
   id="path4" />
</g><g
       id="Logo__x2014__FIXED">
	<path
   class="st1"
   d="m 153.6,301.6 c 94.3,0 145.9,-78.2 145.9,-145.9 0,-2.2 0,-4.4 -0.1,-6.6 10,-7.2 18.7,-16.3 25.6,-26.6 -9.2,4.1 -19.1,6.8 -29.5,8.1 10.6,-6.3 18.7,-16.4 22.6,-28.4 -9.9,5.9 -20.9,10.1 -32.6,12.4 -9.4,-10 -22.7,-16.2 -37.4,-16.2 -28.3,0 -51.3,23 -51.3,51.3 0,4 0.5,7.9 1.3,11.7 -42.6,-2.1 -80.4,-22.6 -105.7,-53.6 -4.4,7.6 -6.9,16.4 -6.9,25.8 0,17.8 9.1,33.5 22.8,42.7 -8.4,-0.3 -16.3,-2.6 -23.2,-6.4 0,0.2 0,0.4 0,0.7 0,24.8 17.7,45.6 41.1,50.3 -4.3,1.2 -8.8,1.8 -13.5,1.8 -3.3,0 -6.5,-0.3 -9.6,-0.9 6.5,20.4 25.5,35.2 47.9,35.6 -17.6,13.8 -39.7,22 -63.7,22 -4.1,0 -8.2,-0.2 -12.2,-0.7 22.6,14.4 49.6,22.9 78.5,22.9"
   id="path7" />
</g></g><g
     aria-label="@kledgeb"
     transform="scale(1.000448,0.99955222)"
     id="text302"
     style="font-size:531.866px;line-height:1.25;stroke-width:13.2966"><path
       d="m 911.40484,198.97188 h -43.61302 l -8.50985,28.72077 c -12.23292,-27.65704 -39.35809,-37.23062 -62.22833,-37.23062 -70.20631,0 -115.94679,68.61071 -115.94679,135.62583 0,49.46354 38.29435,90.94909 83.50296,90.94909 22.87024,0 44.67675,-9.57359 57.44153,-30.84823 h 1.06374 c 1.59559,17.55158 15.95598,30.31637 38.82622,30.31637 34.03942,0 124.98851,-45.20861 124.98851,-154.24115 0,-97.86335 -88.82162,-162.21914 -185.08937,-162.21914 -110.62814,0 -202.1091,86.69416 -202.1091,198.9179 0,113.28746 91.48096,198.91789 204.76843,198.91789 66.48325,0 126.05224,-30.84823 162.21913,-86.1623 h -44.67674 c -27.65704,27.65704 -69.67445,43.61302 -114.3512,43.61302 -91.48096,0 -156.90048,-62.22833 -156.90048,-155.30488 0,-89.88536 59.03713,-157.43235 150.51809,-157.43235 80.84364,0 144.13569,46.27235 144.13569,130.83905 0,57.44153 -32.44383,97.86335 -62.76019,97.86335 -6.38239,0 -9.04172,-5.31867 -9.04172,-12.23292 0,-6.91426 2.12746,-15.95598 4.25493,-22.87024 z M 735.35718,319.1736 c 0,-35.63502 27.12517,-78.1843 65.95139,-78.1843 22.87024,0 40.95368,19.14718 40.95368,45.20861 0,36.69876 -27.12516,80.31177 -65.41952,80.31177 -24.9977,0 -41.48555,-19.14718 -41.48555,-47.33608 z"
       style="font-weight:bold;font-family:'Helvetica Neue LT Pro';-inkscape-font-specification:'Helvetica Neue LT Pro Bold'"
       id="path528" /><path
       d="m 1041.7116,488.83887 h 75.525 v -94.67216 l 29.2526,-28.1889 75.525,122.86106 h 91.481 l -115.415,-173.92019 103.7139,-101.05455 h -89.3535 l -95.204,98.92708 V 109.08652 h -75.525 z"
       style="font-weight:bold;font-family:'Helvetica Neue LT Pro';-inkscape-font-specification:'Helvetica Neue LT Pro Bold'"
       id="path530" /><path
       d="m 1342.2156,488.83887 h 75.525 V 109.08652 h -75.525 z"
       style="font-weight:bold;font-family:'Helvetica Neue LT Pro';-inkscape-font-specification:'Helvetica Neue LT Pro Bold'"
       id="path532" /><path
       d="m 1539.5376,321.83293 c 1.5956,-21.27464 13.8285,-58.50526 62.7602,-58.50526 36.6987,0 53.1866,20.21091 60.1008,58.50526 z m 198.386,47.86795 c 5.8505,-84.5667 -39.8899,-163.28287 -133.4984,-163.28287 -83.5029,0 -140.4126,62.76019 -140.4126,145.19942 0,85.09857 53.7185,144.66756 140.4126,144.66756 62.2284,0 107.437,-27.12517 128.7116,-92.54469 h -66.4832 c -4.7868,17.01972 -29.2527,35.63503 -59.569,35.63503 -42.5493,0 -65.4195,-21.27464 -67.547,-69.67445 z"
       style="font-weight:bold;font-family:'Helvetica Neue LT Pro';-inkscape-font-specification:'Helvetica Neue LT Pro Bold'"
       id="path534" /><path
       d="m 1977.7949,350.5537 c 0,45.20861 -15.4241,88.82163 -64.8876,88.82163 -46.8042,0 -66.4833,-45.20862 -66.4833,-88.28976 0,-44.67675 17.0197,-87.7579 66.4833,-87.7579 48.9317,0 64.8876,42.54928 64.8876,87.22603 z m 1.0638,138.28517 h 71.8019 V 109.08652 h -75.525 v 138.28517 h -1.0637 c -17.0197,-27.12517 -48.9317,-40.95368 -81.3755,-40.95368 -80.8437,0 -121.7974,68.61071 -121.7974,142.54009 0,76.58871 40.4219,147.32689 123.393,147.32689 35.635,0 65.9514,-12.76478 83.5029,-42.54928 h 1.0638 z"
       style="font-weight:bold;font-family:'Helvetica Neue LT Pro';-inkscape-font-specification:'Helvetica Neue LT Pro Bold'"
       id="path536" /><path
       d="m 2235.7489,423.95121 c -46.8042,0 -61.1646,-43.08115 -61.1646,-82.43923 0,-40.95369 18.6153,-78.18431 61.1646,-78.18431 48.9317,0 64.3558,39.88995 64.3558,84.5667 0,39.35809 -21.2746,76.05684 -64.3558,76.05684 z m 136.1577,-210.08708 h -71.8019 v 36.69876 h -1.0637 c -18.6153,-31.91196 -45.7405,-44.14488 -81.9074,-44.14488 -76.5887,0 -118.0742,64.88765 -118.0742,136.1577 0,75.52498 34.5713,138.28517 117.5424,138.28517 33.5075,0 65.9513,-13.29665 82.4392,-42.54929 h 1.0637 v 36.16689 c 0.5319,39.88996 -18.6153,68.07886 -60.6327,68.07886 -27.1252,0 -49.4636,-9.57359 -56.3778,-37.76249 h -74.9931 c 4.2549,62.22832 67.0151,88.28976 121.2654,88.28976 126.0523,0 142.5401,-76.58871 142.5401,-121.79732 z"
       style="font-weight:bold;font-family:'Helvetica Neue LT Pro';-inkscape-font-specification:'Helvetica Neue LT Pro Bold'"
       id="path538" /><path
       d="m 2494.7667,321.83293 c 1.5956,-21.27464 13.8285,-58.50526 62.7601,-58.50526 36.6988,0 53.1867,20.21091 60.1009,58.50526 z m 198.386,47.86795 c 5.8505,-84.5667 -39.89,-163.28287 -133.4984,-163.28287 -83.503,0 -140.4126,62.76019 -140.4126,145.19942 0,85.09857 53.7184,144.66756 140.4126,144.66756 62.2283,0 107.4369,-27.12517 128.7116,-92.54469 h -66.4833 c -4.7868,17.01972 -29.2526,35.63503 -59.569,35.63503 -42.5492,0 -65.4195,-21.27464 -67.5469,-69.67445 z"
       style="font-weight:bold;font-family:'Helvetica Neue LT Pro';-inkscape-font-specification:'Helvetica Neue LT Pro Bold'"
       id="path540" /><path
       d="m 2939.4063,351.61743 c 0,45.74048 -19.679,87.7579 -64.3558,87.7579 -44.6767,0 -64.3558,-42.01742 -64.3558,-87.7579 0,-46.80421 19.6791,-88.28976 64.3558,-88.28976 44.6768,0 64.3558,41.48555 64.3558,88.28976 z m -201.5772,137.22144 h 71.8019 v -35.10316 h 1.0637 c 16.4879,30.31636 49.9955,42.54928 90.4173,42.54928 54.7822,0 113.8193,-44.67674 113.8193,-145.19942 0,-100.52268 -59.0371,-144.66756 -113.8193,-144.66756 -34.0395,0 -68.0789,12.76478 -86.6942,40.95368 h -1.0637 V 109.08652 h -75.525 z"
       style="font-weight:bold;font-family:'Helvetica Neue LT Pro';-inkscape-font-specification:'Helvetica Neue LT Pro Bold'"
       id="path542" /></g></g></svg>
